<svg xmlns="http://www.w3.org/2000/svg" viewBox="0 0 640 640"><!--!Font Awesome Pro 7.0.0 by @fontawesome - https://fontawesome.com License - https://fontawesome.com/license (Commercial License) Copyright 2025 Fonticons, Inc.--><path opacity=".4" d="M54.3 209.8C51.2 217.2 52.1 225.6 56.5 232.3L114.7 320L56.5 407.8C52.1 414.5 51.3 422.9 54.3 430.3C57.3 437.7 63.9 443.1 71.7 444.6L175 465.4L195.9 568.7C197.5 576.5 202.9 583.1 210.2 586.1C217.5 589.1 226 588.3 232.7 583.9L320.5 525.7L408.3 583.9C415 588.3 423.4 589.1 430.8 586.1C438.2 583.1 443.6 576.5 445.1 568.7L466 465.5L569.2 444.6C577 443 583.6 437.6 586.6 430.3C589.6 423 588.8 414.5 584.4 407.8L526.2 320L584.4 232.2C588.8 225.5 589.6 217.1 586.6 209.7C583.6 202.3 577 196.9 569.2 195.4L465.8 174.6L445 71.3C443.4 63.5 438 57 430.6 53.9C423.2 50.8 414.8 51.7 408.1 56.1L320.4 114.3L232.6 56.1C225.9 51.7 217.5 50.9 210.1 53.9C202.7 56.9 197.4 63.5 195.9 71.3L175 174.6L71.7 195.5C63.9 197.1 57.3 202.5 54.3 209.8zM447.6 320C447.6 390.5 390.5 447.6 320 447.6C249.5 447.6 192.4 390.5 192.4 320C192.4 249.5 249.5 192.4 320 192.4C390.5 192.4 447.6 249.5 447.6 320z"/><path d="M239.6 320C239.6 275.6 275.6 239.6 320 239.6C364.4 239.6 400.4 275.6 400.4 320C400.4 364.4 364.4 400.4 320 400.4C275.6 400.4 239.6 364.4 239.6 320z"/></svg>